<svg xmlns="http://www.w3.org/2000/svg" xmlns:xlink="http://www.w3.org/1999/xlink" width="500" zoomAndPan="magnify" viewBox="0 0 375 374.999991" height="500" preserveAspectRatio="xMidYMid meet" version="1.0"><defs><clipPath id="4c4eadcb23"><path d="M 190.011719 177.042969 L 302.503906 177.042969 L 302.503906 208.542969 L 190.011719 208.542969 Z M 190.011719 177.042969 " clip-rule="nonzero"/></clipPath><clipPath id="c5d26d8367"><path d="M 205.671875 177.042969 L 286.839844 177.042969 C 295.492188 177.042969 302.503906 184.054688 302.503906 192.703125 C 302.503906 201.355469 295.492188 208.367188 286.839844 208.367188 L 205.671875 208.367188 C 197.023438 208.367188 190.011719 201.355469 190.011719 192.703125 C 190.011719 184.054688 197.023438 177.042969 205.671875 177.042969 Z M 205.671875 177.042969 " clip-rule="nonzero"/></clipPath></defs><g clip-path="url(#4c4eadcb23)"><g clip-path="url(#c5d26d8367)"><path stroke-linecap="butt" transform="matrix(0.75, 0, 0, 0.75, 190.010426, 177.041532)" fill="none" stroke-linejoin="miter" d="M 20.881934 0.00191517 L 129.105899 0.00191517 C 140.642358 0.00191517 149.991317 9.350874 149.991317 20.882125 C 149.991317 32.418584 140.642358 41.767543 129.105899 41.767543 L 20.881934 41.767543 C 9.350683 41.767543 0.00172417 32.418584 0.00172417 20.882125 C 0.00172417 9.350874 9.350683 0.00191517 20.881934 0.00191517 Z M 20.881934 0.00191517 " stroke="#3c68af" stroke-width="10" stroke-opacity="1" stroke-miterlimit="4"/></g></g></svg>